<svg width="1438" height="821" viewBox="0 0 1438 821" fill="none" xmlns="http://www.w3.org/2000/svg">
<rect width="1440" height="715" fill="#757575" fill-opacity="0.5"/>
<path d="M258.098 647.483C274.876 715.17 271.198 781.289 240.401 807.423C209.603 833.296 151.686 819.184 107.099 782.596C62.5114 746.008 31.4842 687.207 43.6652 626.837C55.8463 566.206 111.465 504.269 157.891 507.666C204.088 511.064 241.32 580.057 258.098 647.483Z" fill="#178395"/>
<line x1="206.079" y1="709.188" x2="212.013" y2="704.452" stroke="white" stroke-opacity="0.5" stroke-linecap="round"/>
<line x1="213.596" y1="713.78" x2="219.53" y2="709.044" stroke="white" stroke-opacity="0.5" stroke-linecap="round"/>
<line x1="209.838" y1="711.484" x2="215.771" y2="706.748" stroke="white" stroke-opacity="0.5" stroke-linecap="round"/>
<line x1="209.472" y1="711.541" x2="212.069" y2="704.817" stroke="white" stroke-opacity="0.5" stroke-linecap="round"/>
<line x1="216.99" y1="716.133" x2="219.586" y2="709.409" stroke="white" stroke-opacity="0.5" stroke-linecap="round"/>
<line x1="213.231" y1="713.837" x2="215.827" y2="707.113" stroke="white" stroke-opacity="0.5" stroke-linecap="round"/>
<circle cx="229.5" cy="538.5" r="1" fill="white" stroke="white"/>
<circle cx="94.5" cy="475.5" r="1" fill="white" stroke="white"/>
<circle cx="57.5" cy="611.5" r="1.5" fill="white" fill-opacity="0.7"/>
<circle cx="57.5" cy="611.5" r="1" stroke="white" stroke-opacity="0.7"/>
<circle cx="57.5" cy="605.5" r="1.5" fill="white" fill-opacity="0.7"/>
<circle cx="57.5" cy="605.5" r="1" stroke="white" stroke-opacity="0.7"/>
<circle cx="57.5" cy="617.5" r="1.5" fill="white" fill-opacity="0.7"/>
<circle cx="57.5" cy="617.5" r="1" stroke="white" stroke-opacity="0.7"/>
<circle cx="63.5" cy="611.5" r="1.5" fill="white" fill-opacity="0.7"/>
<circle cx="63.5" cy="611.5" r="1" stroke="white" stroke-opacity="0.7"/>
<circle cx="63.5" cy="605.5" r="1.5" fill="white" fill-opacity="0.7"/>
<circle cx="63.5" cy="605.5" r="1" stroke="white" stroke-opacity="0.7"/>
<circle cx="63.5" cy="617.5" r="1.5" fill="white" fill-opacity="0.7"/>
<circle cx="63.5" cy="617.5" r="1" stroke="white" stroke-opacity="0.7"/>
<circle cx="69.5" cy="611.5" r="1.5" fill="white" fill-opacity="0.7"/>
<circle cx="69.5" cy="611.5" r="1" stroke="white" stroke-opacity="0.7"/>
<circle cx="69.5" cy="605.5" r="1.5" fill="white" fill-opacity="0.7"/>
<circle cx="69.5" cy="605.5" r="1" stroke="white" stroke-opacity="0.7"/>
<circle cx="69.5" cy="617.5" r="1.5" fill="white" fill-opacity="0.7"/>
<circle cx="69.5" cy="617.5" r="1" stroke="white" stroke-opacity="0.7"/>
<rect x="230.209" y="676.751" width="4" height="15" rx="2" transform="rotate(27.346 230.209 676.751)" fill="white" fill-opacity="0.7"/>
<rect x="230.424" y="677.424" width="3" height="14" rx="1.5" transform="rotate(27.346 230.424 677.424)" stroke="white" stroke-opacity="0.7"/>
<rect x="236.792" y="685.948" width="4" height="16.0362" rx="2" transform="rotate(117.694 236.792 685.948)" fill="white" fill-opacity="0.7"/>
<rect x="236.117" y="686.159" width="3" height="15.0362" rx="1.5" transform="rotate(117.694 236.117 686.159)" stroke="white" stroke-opacity="0.7"/>
<rect x="84.7471" y="492.198" width="2.80693" height="10.526" rx="1.40346" transform="rotate(-26.9063 84.7471 492.198)" fill="white" fill-opacity="0.7"/>
<rect x="85.4192" y="492.418" width="1.80693" height="9.52597" rx="0.903463" transform="rotate(-26.9063 85.4192 492.418)" stroke="white" stroke-opacity="0.7"/>
<rect x="92.6841" y="492.22" width="2.80693" height="11.2531" rx="1.40346" transform="rotate(63.4418 92.6841 492.22)" fill="white" fill-opacity="0.7"/>
<rect x="92.4604" y="492.891" width="1.80693" height="10.2531" rx="0.903463" transform="rotate(63.4418 92.4604 492.891)" stroke="white" stroke-opacity="0.7"/>
<line x1="188.284" y1="479.921" x2="182.184" y2="471.124" stroke="white" stroke-opacity="0.7" stroke-linecap="round"/>
<line x1="195.215" y1="470.125" x2="189.115" y2="461.328" stroke="white" stroke-opacity="0.7" stroke-linecap="round"/>
<line x1="191.749" y1="475.023" x2="185.65" y2="466.226" stroke="white" stroke-opacity="0.7" stroke-linecap="round"/>
<line x1="191.781" y1="475.392" x2="182.552" y2="471.093" stroke="white" stroke-opacity="0.7" stroke-linecap="round"/>
<line x1="198.712" y1="465.596" x2="189.483" y2="461.297" stroke="white" stroke-opacity="0.7" stroke-linecap="round"/>
<line x1="195.246" y1="470.494" x2="186.018" y2="466.195" stroke="white" stroke-opacity="0.7" stroke-linecap="round"/>
<g clip-path="url(#clip0)">
<path d="M1329.33 555.254C1330.01 555.079 1330.65 554.752 1331.2 554.294C1331.74 553.836 1332.18 553.259 1332.49 552.604C1332.8 551.948 1332.97 551.231 1332.98 550.501C1333 549.771 1332.85 549.047 1332.57 548.38L1345.02 536.263L1336.41 534.109L1325.9 545.946C1324.86 546.518 1324.05 547.469 1323.63 548.619C1323.22 549.769 1323.22 551.037 1323.64 552.185C1324.07 553.332 1324.88 554.278 1325.93 554.844C1326.98 555.409 1328.19 555.555 1329.33 555.254Z" fill="#FFB6B6"/>
<path d="M1335.77 545.493L1329.96 536.974L1351.77 513.499L1356.84 476.497C1357.09 474.668 1357.72 472.919 1358.69 471.373C1359.67 469.828 1360.96 468.525 1362.47 467.556C1363.98 466.587 1365.68 465.976 1367.44 465.767C1369.21 465.557 1370.99 465.755 1372.68 466.345C1375.71 467.414 1378.22 469.693 1379.65 472.683C1381.07 475.673 1381.3 479.128 1380.28 482.291L1367.35 522.184L1335.77 545.493Z" fill="#E4E4E4"/>
<path d="M1376.72 703.155H1370.28L1367.21 677.282L1376.73 677.283L1376.72 703.155Z" fill="#FFB6B6"/>
<path d="M1380.19 715.892H1375.62L1374.8 711.398L1372.71 715.892H1360.58C1359.99 715.892 1359.43 715.699 1358.96 715.34C1358.49 714.981 1358.15 714.476 1357.97 713.899C1357.8 713.321 1357.81 712.701 1358 712.129C1358.19 711.557 1358.55 711.063 1359.03 710.719L1368.72 703.757V699.214L1378.91 699.847L1380.19 715.892Z" fill="#2F2E41"/>
<path d="M1416.5 696.33L1410.84 699.536L1396.26 678.335L1404.61 673.603L1416.5 696.33Z" fill="#FFB6B6"/>
<path d="M1425.4 705.792L1421.38 708.067L1418.6 704.526L1418.82 709.513L1408.17 715.547C1407.66 715.836 1407.07 715.948 1406.49 715.866C1405.92 715.784 1405.38 715.513 1404.96 715.091C1404.55 714.67 1404.27 714.121 1404.17 713.524C1404.08 712.927 1404.17 712.314 1404.43 711.774L1409.74 700.84L1407.65 696.85L1416.9 692.337L1425.4 705.792Z" fill="#2F2E41"/>
<path d="M1379.44 693.942H1366.12V644.579L1357.87 612.397C1351.95 589.383 1350.38 565.392 1353.24 541.754L1353.25 541.657L1353.32 541.595C1353.53 541.409 1374.64 523.248 1388 537.141C1397 546.506 1388.54 580.18 1388.07 582.028V640.079L1379.44 693.942Z" fill="#2F2E41"/>
<path d="M1379.41 461.189L1379.34 461.116L1362.35 461.385L1353.28 483.534C1344.88 497.102 1352.91 504.819 1353.47 506.041L1351.87 522.69L1350.84 533.43L1349.18 550.723L1388.11 537.489L1383.78 519.438L1388.78 493.402C1389.89 487.645 1389.62 481.691 1387.98 476.07C1386.35 470.45 1383.4 465.338 1379.41 461.189Z" fill="#E4E4E4"/>
<path d="M1371.49 644.834L1398.86 684.89L1409.36 677.123L1386.5 628.249L1371.49 644.834Z" fill="#2F2E41"/>
<path d="M1369.26 456.884C1377.92 456.884 1384.94 449.579 1384.94 440.566C1384.94 431.554 1377.92 424.249 1369.26 424.249C1360.59 424.249 1353.57 431.554 1353.57 440.566C1353.57 449.579 1360.59 456.884 1369.26 456.884Z" fill="#FFB6B6"/>
<path opacity="0.1" d="M1384.38 503.694L1367.28 524.23L1350.84 533.43L1351.87 522.69L1361.55 517.034L1384.38 503.694Z" fill="black"/>
<path d="M1358.27 471.147L1356.8 464.438C1356.32 462.192 1356.27 459.869 1356.66 457.605C1357.05 455.341 1357.88 453.181 1359.09 451.253C1360.2 449.436 1360.81 447.341 1360.88 445.189C1360.94 443.037 1360.44 440.907 1359.44 439.024C1358.7 437.501 1357.58 436.216 1356.19 435.307C1354.8 434.397 1353.2 433.898 1351.56 433.862H1351.17V433.454C1351.17 427.603 1355.56 423.473 1359.63 423.236C1359.78 422.019 1360.61 420.927 1362.05 420.061C1365.5 417.991 1372.17 417.542 1377.21 420.301C1377.31 419.409 1377.63 418.56 1378.15 417.844C1378.67 417.128 1379.36 416.571 1380.16 416.233C1380.99 415.933 1381.88 415.88 1382.74 416.079C1382.81 414.612 1383.39 413.223 1384.38 412.168C1385.77 410.765 1388 410.232 1390.5 410.702C1393.94 411.351 1397.32 413.628 1400.04 417.114C1402.44 420.205 1404.11 423.848 1405.72 427.371C1407.31 430.835 1408.95 434.417 1411.33 437.451C1413.94 440.774 1417.17 442.927 1420.43 443.513C1424.23 444.197 1428.13 442.569 1429.92 439.555L1430.27 438.956L1430.6 439.574C1432.6 443.408 1431.78 448.677 1428.65 452.101C1425.83 455.172 1421.42 456.737 1416.84 456.283C1412.97 455.899 1409.06 454.186 1405.23 451.191C1401.42 448.216 1399.06 444.928 1398.23 441.417C1397.99 440.331 1397.83 439.231 1397.73 438.122C1397.47 435.801 1397.22 433.608 1395.85 431.994C1394.62 430.543 1392.71 429.914 1391.01 429.439L1390.68 429.347C1390.62 430 1390.42 430.633 1390.1 431.199C1389.78 431.766 1389.35 432.253 1388.83 432.627C1388.52 432.822 1388.18 432.959 1387.82 433.032C1389.78 441.25 1388.98 447.543 1385.42 451.738C1379.42 458.82 1367.88 457.363 1367.39 457.299L1367.07 457.255L1367.05 456.915C1367.01 456.001 1366.9 455.093 1366.73 454.196C1365.08 458.338 1359.52 469.29 1358.78 470.395L1358.27 471.147Z" fill="#2F2E41"/>
<path d="M804.411 497.495C803.952 498.122 803.367 498.638 802.696 499.005C802.025 499.371 801.286 499.581 800.529 499.618C799.772 499.655 799.016 499.519 798.315 499.219C797.614 498.92 796.985 498.464 796.472 497.884L779.581 505.527L781.226 495.717L797.014 489.963C798.007 489.13 799.26 488.706 800.534 488.77C801.809 488.834 803.016 489.382 803.928 490.31C804.839 491.239 805.392 492.483 805.481 493.807C805.57 495.131 805.189 496.443 804.411 497.495V497.495Z" fill="#A0616A"/>
<path d="M793.139 500.558L753.907 518.74L753.823 518.708L709.109 502.13C705.778 500.319 703.239 497.252 702.011 493.556C700.783 489.861 700.96 485.817 702.504 482.252C703.36 480.283 704.607 478.525 706.163 477.093C707.72 475.661 709.55 474.588 711.533 473.945C713.517 473.303 715.609 473.104 717.671 473.363C719.734 473.622 721.72 474.333 723.5 475.448L756.775 496.303L789.043 491.952L793.139 500.558Z" fill="#817F92"/>
<path d="M809.576 380.846C794.745 346.714 795.291 303.45 818.309 274.648C826.009 314.587 847.04 350.404 877.678 375.763C889.529 385.499 903.683 395.043 906.921 410.387C908.935 419.935 906.08 430.034 901.144 438.351C896.207 446.668 889.326 453.509 882.524 460.252L881.761 462.559C852.161 441.236 824.407 414.978 809.576 380.846Z" fill="#F0F0F0"/>
<path d="M818.949 275.065C813.652 305.244 817.587 337.379 830.463 365.029C833.246 371.007 836.57 376.819 841.02 381.627C845.393 386.278 850.882 389.627 856.919 391.325C862.517 393.025 868.433 394.09 873.536 397.177C878.915 400.431 882.254 405.89 883.554 412.151C885.145 419.811 883.996 427.609 882.618 435.195C881.087 443.617 879.369 452.339 881.587 460.806C881.856 461.832 880.31 462.206 880.042 461.181C876.183 446.451 883.685 431.923 882.637 417.114C882.147 410.203 879.653 403.405 873.959 399.401C868.979 395.9 862.879 394.796 857.197 393.125C851.23 391.37 845.871 388.691 841.312 384.245C836.647 379.698 833.098 374.009 830.18 368.131C823.658 354.752 819.198 340.388 816.964 325.568C814.325 308.667 814.483 291.422 817.433 274.578C817.616 273.535 819.131 274.029 818.949 275.065Z" fill="white"/>
<path d="M825.822 356.271C821.017 357.874 815.821 357.646 811.163 355.631C806.504 353.615 802.685 349.942 800.389 345.268C799.928 344.32 801.321 343.53 801.783 344.478C803.914 348.835 807.471 352.256 811.813 354.124C816.155 355.992 820.995 356.183 825.461 354.664C826.432 354.335 826.787 355.944 825.822 356.271L825.822 356.271Z" fill="white"/>
<path d="M853.971 390.851C858.773 381.354 859.957 370.322 857.288 359.957C857.023 358.93 858.568 358.556 858.833 359.581C861.591 370.373 860.336 381.851 855.319 391.723C854.84 392.663 853.495 391.787 853.971 390.851Z" fill="white"/>
<path d="M816.365 309.204C818.348 308.987 820.248 308.261 821.895 307.091C823.542 305.921 824.884 304.344 825.8 302.501C826.267 301.555 827.612 302.432 827.148 303.373C826.127 305.404 824.643 307.144 822.826 308.44C821.009 309.737 818.914 310.551 816.725 310.811C816.521 310.854 816.309 310.814 816.132 310.699C815.955 310.585 815.826 310.405 815.772 310.195C815.726 309.982 815.762 309.759 815.872 309.573C815.983 309.387 816.16 309.255 816.365 309.204Z" fill="white"/>
<path d="M940.204 274.983C939.928 275.582 939.653 276.182 939.384 276.794C935.72 284.875 932.692 293.253 930.332 301.844C930.14 302.506 929.954 303.179 929.78 303.844C924.306 324.606 922.584 346.245 924.702 367.66C925.552 376.181 927.025 384.623 929.106 392.911C931.981 404.358 935.973 416.531 935.072 427.961C934.991 429.155 934.839 430.342 934.617 431.516L884.525 463.349C884.377 463.362 884.234 463.387 884.085 463.4L882.141 464.766C882.005 464.346 881.872 463.908 881.736 463.488C881.656 463.245 881.588 462.995 881.508 462.752C881.458 462.588 881.409 462.423 881.355 462.278C881.338 462.223 881.322 462.168 881.312 462.125C881.258 461.98 881.223 461.839 881.176 461.706C880.429 459.258 879.698 456.8 878.982 454.333C878.975 454.321 878.975 454.321 878.979 454.302C873.568 435.487 869.619 416.037 868.632 396.582C868.603 395.996 868.566 395.399 868.559 394.8C868.162 386.027 868.454 377.236 869.433 368.514C869.983 363.739 870.766 358.997 871.778 354.305C874.414 342.186 878.866 330.575 884.971 319.896C897.143 298.609 915.723 281.61 938.462 275.437C939.044 275.279 939.615 275.128 940.204 274.983Z" fill="#F0F0F0"/>
<path d="M940.48 275.716C918.786 296.494 903.333 324.617 897.613 354.759C896.376 361.276 895.667 367.999 896.438 374.625C897.237 381.078 899.683 387.19 903.52 392.327C907.006 397.192 911.113 401.748 913.402 407.41C915.814 413.377 915.32 419.827 912.735 425.641C909.573 432.754 904.143 438.26 898.653 443.453C892.557 449.219 886.138 455.107 883.01 463.257C882.631 464.244 881.18 463.574 881.559 462.588C887.001 448.41 901.399 441.51 909.131 429.029C912.739 423.204 914.682 416.214 912.452 409.45C910.502 403.535 906.271 398.833 902.7 393.939C898.951 388.8 896.224 383.304 895.156 376.898C894.063 370.345 894.521 363.58 895.592 357.059C898.127 342.29 902.878 328.029 909.67 314.796C917.342 299.649 927.448 285.978 939.551 274.377C940.3 273.659 941.224 275.003 940.48 275.716V275.716Z" fill="white"/>
<path d="M898.975 344.86C894.212 343.129 890.195 339.693 887.641 335.165C885.088 330.638 884.165 325.313 885.036 320.142C885.216 319.097 886.786 319.338 886.606 320.385C885.786 325.199 886.646 330.159 889.032 334.37C891.418 338.581 895.173 341.766 899.618 343.35C900.583 343.695 899.935 345.203 898.975 344.86H898.975Z" fill="white"/>
<path d="M901.441 390.103C910.77 385.527 918.099 377.461 921.967 367.513C922.349 366.527 923.8 367.196 923.418 368.181C919.375 378.526 911.731 386.904 902.013 391.643C901.086 392.094 900.519 390.552 901.441 390.103Z" fill="white"/>
<path d="M918.661 301.355C920.37 302.424 922.307 303.035 924.299 303.132C926.291 303.23 928.275 302.811 930.073 301.914C930.994 301.451 931.56 302.994 930.645 303.454C928.654 304.436 926.462 304.895 924.261 304.792C922.06 304.69 919.917 304.028 918.019 302.864C917.831 302.77 917.684 302.605 917.609 302.403C917.534 302.201 917.536 301.976 917.614 301.775C917.7 301.576 917.858 301.42 918.054 301.341C918.25 301.262 918.468 301.267 918.661 301.355Z" fill="white"/>
<path d="M1132.27 398.774C1117.44 364.642 1117.98 321.378 1141 292.576C1148.7 332.515 1169.73 368.332 1200.37 393.691C1212.22 403.427 1226.38 412.971 1229.61 428.315C1231.63 437.863 1228.77 447.962 1223.84 456.278C1218.9 464.595 1212.02 471.437 1205.22 478.179L1204.45 480.487C1174.85 459.164 1147.1 432.906 1132.27 398.774Z" fill="#F0F0F0"/>
<path d="M1141.64 292.993C1136.34 323.172 1140.28 355.307 1153.16 382.957C1155.94 388.935 1159.26 394.747 1163.71 399.555C1168.08 404.206 1173.57 407.555 1179.61 409.253C1185.21 410.953 1191.13 412.018 1196.23 415.105C1201.61 418.359 1204.95 423.818 1206.25 430.079C1207.84 437.739 1206.69 445.537 1205.31 453.123C1203.78 461.545 1202.06 470.267 1204.28 478.734C1204.55 479.76 1203 480.133 1202.73 479.109C1198.88 464.379 1206.38 449.851 1205.33 435.042C1204.84 428.131 1202.35 421.333 1196.65 417.329C1191.67 413.827 1185.57 412.724 1179.89 411.053C1173.92 409.298 1168.56 406.618 1164 402.173C1159.34 397.625 1155.79 391.936 1152.87 386.059C1146.35 372.679 1141.89 358.316 1139.66 343.496C1137.02 326.595 1137.18 309.35 1140.13 292.506C1140.31 291.463 1141.82 291.957 1141.64 292.993Z" fill="white"/>
<path d="M1148.51 374.199C1143.71 375.801 1138.51 375.574 1133.85 373.559C1129.2 371.543 1125.38 367.87 1123.08 363.196C1122.62 362.248 1124.01 361.457 1124.48 362.406C1126.61 366.763 1130.16 370.184 1134.51 372.052C1138.85 373.92 1143.69 374.111 1148.15 372.592C1149.12 372.263 1149.48 373.872 1148.51 374.199V374.199Z" fill="white"/>
<path d="M1176.66 408.779C1181.46 399.282 1182.65 388.25 1179.98 377.884C1179.71 376.858 1181.26 376.484 1181.53 377.509C1184.28 388.301 1183.03 399.779 1178.01 409.651C1177.53 410.591 1176.19 409.715 1176.66 408.779Z" fill="white"/>
<path d="M1139.06 327.132C1141.04 326.915 1142.94 326.189 1144.59 325.019C1146.23 323.849 1147.58 322.272 1148.49 320.429C1148.96 319.483 1150.3 320.36 1149.84 321.301C1148.82 323.332 1147.33 325.072 1145.52 326.368C1143.7 327.665 1141.61 328.479 1139.42 328.739C1139.21 328.782 1139 328.742 1138.82 328.627C1138.65 328.513 1138.52 328.333 1138.46 328.123C1138.42 327.91 1138.45 327.686 1138.56 327.501C1138.68 327.315 1138.85 327.182 1139.06 327.132Z" fill="white"/>
<path d="M1262.9 292.911C1262.62 293.51 1262.35 294.11 1262.08 294.722C1258.41 302.803 1255.38 311.181 1253.02 319.772C1252.83 320.433 1252.65 321.107 1252.47 321.772C1247 342.534 1245.28 364.172 1247.39 385.588C1248.24 394.109 1249.72 402.55 1251.8 410.839C1254.67 422.286 1258.67 434.459 1257.76 445.889C1257.68 447.082 1257.53 448.27 1257.31 449.444L1207.22 481.277C1207.07 481.289 1206.93 481.315 1206.78 481.328L1204.83 482.694C1204.7 482.274 1204.56 481.836 1204.43 481.416C1204.35 481.173 1204.28 480.923 1204.2 480.68C1204.15 480.516 1204.1 480.351 1204.05 480.206C1204.03 480.151 1204.01 480.096 1204 480.053C1203.95 479.908 1203.92 479.767 1203.87 479.633C1203.12 477.186 1202.39 474.728 1201.67 472.26C1201.67 472.249 1201.67 472.249 1201.67 472.23C1196.26 453.415 1192.31 433.965 1191.32 414.51C1191.3 413.924 1191.26 413.327 1191.25 412.727C1190.85 403.955 1191.15 395.164 1192.12 386.441C1192.68 381.667 1193.46 376.925 1194.47 372.233C1197.11 360.114 1201.56 348.503 1207.66 337.824C1219.84 316.537 1238.42 299.538 1261.15 293.365C1261.74 293.207 1262.31 293.056 1262.9 292.911Z" fill="#F0F0F0"/>
<path d="M1263.17 293.644C1241.48 314.422 1226.03 342.545 1220.31 372.687C1219.07 379.204 1218.36 385.927 1219.13 392.553C1219.93 399.006 1222.38 405.118 1226.21 410.255C1229.7 415.12 1233.81 419.676 1236.09 425.337C1238.51 431.305 1238.01 437.755 1235.43 443.569C1232.27 450.682 1226.84 456.188 1221.35 461.381C1215.25 467.147 1208.83 473.035 1205.7 481.185C1205.32 482.172 1203.87 481.502 1204.25 480.516C1209.69 466.338 1224.09 459.438 1231.82 446.957C1235.43 441.132 1237.37 434.142 1235.14 427.378C1233.19 421.463 1228.96 416.761 1225.39 411.867C1221.64 406.728 1218.92 401.232 1217.85 394.826C1216.76 388.273 1217.21 381.508 1218.28 374.987C1220.82 360.218 1225.57 345.957 1232.36 332.724C1240.03 317.577 1250.14 303.906 1262.24 292.305C1262.99 291.587 1263.92 292.931 1263.17 293.644V293.644Z" fill="white"/>
<path d="M1221.67 362.788C1216.9 361.057 1212.89 357.621 1210.33 353.093C1207.78 348.566 1206.86 343.241 1207.73 338.07C1207.91 337.025 1209.48 337.266 1209.3 338.313C1208.48 343.127 1209.34 348.086 1211.72 352.298C1214.11 356.509 1217.87 359.694 1222.31 361.278C1223.28 361.623 1222.63 363.131 1221.67 362.788Z" fill="white"/>
<path d="M1224.13 408.031C1233.46 403.455 1240.79 395.389 1244.66 385.441C1245.04 384.455 1246.49 385.124 1246.11 386.109C1242.07 396.454 1234.42 404.832 1224.7 409.571C1223.78 410.022 1223.21 408.48 1224.13 408.031Z" fill="white"/>
<path d="M1241.35 319.283C1243.06 320.352 1245 320.963 1246.99 321.06C1248.98 321.158 1250.97 320.739 1252.77 319.842C1253.69 319.379 1254.25 320.922 1253.34 321.382C1251.35 322.363 1249.15 322.823 1246.95 322.72C1244.75 322.618 1242.61 321.956 1240.71 320.792C1240.52 320.698 1240.38 320.533 1240.3 320.331C1240.23 320.129 1240.23 319.904 1240.31 319.703C1240.39 319.504 1240.55 319.348 1240.75 319.269C1240.94 319.19 1241.16 319.195 1241.35 319.283Z" fill="white"/>
<path d="M832.313 623.057H1213.89V393.214C1213.89 391.492 1213.23 389.841 1212.06 388.623C1210.89 387.405 1209.3 386.72 1207.65 386.719H838.556C836.901 386.72 835.314 387.405 834.143 388.623C832.973 389.841 832.314 391.492 832.313 393.214V623.057Z" fill="#CACACA"/>
<path d="M1202.1 395.702H844.102V607.162H1202.1V395.702Z" fill="white"/>
<path d="M831.98 616.837V645.2C831.98 646.376 832.203 647.54 832.635 648.626C833.068 649.713 833.702 650.7 834.501 651.531C835.3 652.363 836.249 653.022 837.293 653.472C838.337 653.922 839.456 654.154 840.586 654.154H981.423V710.128H979.552C979.405 710.128 979.26 710.158 979.124 710.217C978.989 710.275 978.865 710.361 978.762 710.469C978.658 710.577 978.575 710.705 978.519 710.846C978.463 710.987 978.434 711.139 978.434 711.291V715.185C978.434 715.337 978.463 715.489 978.519 715.63C978.575 715.771 978.658 715.899 978.762 716.007C978.865 716.115 978.989 716.201 979.124 716.259C979.26 716.318 979.405 716.348 979.552 716.348H1066.98C1067.13 716.348 1067.27 716.318 1067.41 716.259C1067.55 716.201 1067.67 716.115 1067.77 716.007C1067.88 715.899 1067.96 715.771 1068.01 715.63C1068.07 715.489 1068.1 715.337 1068.1 715.185V711.291C1068.1 711.139 1068.07 710.987 1068.01 710.846C1067.96 710.705 1067.88 710.577 1067.77 710.469C1067.67 710.361 1067.55 710.275 1067.41 710.217C1067.27 710.158 1067.13 710.128 1066.98 710.128H1065.11V654.154H1205.95C1207.08 654.154 1208.2 653.922 1209.24 653.472C1210.29 653.022 1211.23 652.363 1212.03 651.531C1212.83 650.7 1213.47 649.713 1213.9 648.626C1214.33 647.54 1214.55 646.376 1214.55 645.2V616.837L831.98 616.837Z" fill="#3F3D56"/>
<path d="M955.422 500.277H868.18C867.572 500.276 866.989 500.025 866.56 499.578C866.13 499.13 865.888 498.524 865.887 497.891V461.061C865.888 460.428 866.13 459.822 866.56 459.375C866.989 458.928 867.572 458.676 868.18 458.675H955.422C956.03 458.676 956.613 458.928 957.043 459.375C957.472 459.822 957.714 460.428 957.715 461.061V497.891C957.714 498.524 957.472 499.13 957.043 499.578C956.613 500.025 956.03 500.276 955.422 500.277Z" fill="#178395"/>
<path d="M947.115 517.945H876.487C875.758 517.945 875.058 517.643 874.542 517.106C874.025 516.569 873.736 515.841 873.736 515.082C873.736 514.323 874.025 513.594 874.542 513.057C875.058 512.521 875.758 512.219 876.487 512.219H947.115C950.664 512.167 950.699 517.997 947.115 517.945Z" fill="#E4E4E4"/>
<path d="M947.115 531.067H876.487C875.758 531.067 875.058 530.765 874.542 530.228C874.026 529.691 873.736 528.963 873.736 528.204C873.736 527.445 874.026 526.716 874.542 526.179C875.058 525.643 875.758 525.341 876.487 525.341H947.115C950.664 525.289 950.699 531.119 947.115 531.067Z" fill="#E4E4E4"/>
<path d="M947.115 544.189H876.487C875.758 544.189 875.058 543.887 874.542 543.35C874.025 542.814 873.736 542.085 873.736 541.326C873.736 540.567 874.025 539.838 874.542 539.302C875.058 538.765 875.758 538.463 876.487 538.463H947.115C950.664 538.411 950.699 544.241 947.115 544.189Z" fill="#E4E4E4"/>
<path d="M1066.72 500.277H979.48C978.872 500.276 978.289 500.025 977.859 499.578C977.429 499.13 977.188 498.524 977.187 497.891V461.061C977.188 460.428 977.429 459.822 977.859 459.375C978.289 458.928 978.872 458.676 979.48 458.675H1066.72C1067.33 458.676 1067.91 458.928 1068.34 459.375C1068.77 459.822 1069.01 460.428 1069.01 461.061V497.891C1069.01 498.524 1068.77 499.13 1068.34 499.578C1067.91 500.025 1067.33 500.276 1066.72 500.277Z" fill="#178395"/>
<path d="M1058.41 517.945H987.787C987.057 517.945 986.357 517.643 985.841 517.106C985.325 516.569 985.035 515.841 985.035 515.082C985.035 514.323 985.325 513.594 985.841 513.057C986.357 512.521 987.057 512.219 987.787 512.219H1058.41C1061.96 512.167 1062 517.997 1058.41 517.945Z" fill="#E4E4E4"/>
<path d="M1058.41 531.067H987.787C987.057 531.067 986.357 530.765 985.841 530.228C985.325 529.691 985.035 528.963 985.035 528.204C985.035 527.445 985.325 526.716 985.841 526.179C986.357 525.643 987.057 525.341 987.787 525.341H1058.41C1061.96 525.289 1062 531.119 1058.41 531.067Z" fill="#E4E4E4"/>
<path d="M1058.41 544.189H987.787C987.057 544.189 986.357 543.887 985.841 543.35C985.325 542.814 985.035 542.085 985.035 541.326C985.035 540.567 985.325 539.838 985.841 539.302C986.357 538.765 987.057 538.463 987.787 538.463H1058.41C1061.96 538.411 1062 544.241 1058.41 544.189Z" fill="#E4E4E4"/>
<path d="M1178.02 500.277H1090.78C1090.17 500.276 1089.59 500.025 1089.16 499.578C1088.73 499.13 1088.49 498.524 1088.49 497.891V461.061C1088.49 460.428 1088.73 459.822 1089.16 459.375C1089.59 458.928 1090.17 458.676 1090.78 458.675H1178.02C1178.63 458.676 1179.21 458.928 1179.64 459.375C1180.07 459.822 1180.31 460.428 1180.31 461.061V497.891C1180.31 498.524 1180.07 499.13 1179.64 499.578C1179.21 500.025 1178.63 500.276 1178.02 500.277Z" fill="#178395"/>
<path d="M1169.71 517.945H1099.09C1098.36 517.945 1097.66 517.643 1097.14 517.106C1096.63 516.569 1096.34 515.841 1096.34 515.082C1096.34 514.323 1096.63 513.594 1097.14 513.057C1097.66 512.521 1098.36 512.219 1099.09 512.219H1169.71C1173.26 512.167 1173.3 517.997 1169.71 517.945Z" fill="#E4E4E4"/>
<path d="M1169.71 531.067H1099.09C1098.36 531.066 1097.66 530.763 1097.14 530.227C1096.63 529.69 1096.34 528.962 1096.34 528.204C1096.34 527.445 1096.63 526.718 1097.14 526.181C1097.66 525.644 1098.36 525.342 1099.09 525.341H1169.71C1173.26 525.289 1173.3 531.119 1169.71 531.067Z" fill="#E4E4E4"/>
<path d="M1169.71 544.189H1099.09C1098.36 544.189 1097.66 543.887 1097.14 543.35C1096.63 542.814 1096.34 542.085 1096.34 541.326C1096.34 540.567 1096.63 539.838 1097.14 539.302C1097.66 538.765 1098.36 538.463 1099.09 538.463H1169.71C1173.26 538.411 1173.3 544.241 1169.71 544.189Z" fill="#E4E4E4"/>
<path d="M1327.1 459.173L1327.34 505.336L1328.31 505.279L1329.23 522.37L1327.43 522.473L1327.48 532.741L1328.92 532.711L1329.22 549.817L1327.57 549.848L1328.35 700.488C1328.37 704.432 1326.88 708.223 1324.22 711.027C1321.55 713.831 1317.92 715.421 1314.13 715.446L1154.2 716.348C1150.41 716.366 1146.76 714.818 1144.07 712.044C1141.37 709.27 1139.84 705.497 1139.82 701.552L1138.57 460.237C1138.55 456.292 1140.04 452.502 1142.7 449.697C1145.37 446.893 1148.99 445.304 1152.79 445.279L1312.72 444.377C1316.51 444.361 1320.15 445.909 1322.85 448.683C1325.54 451.456 1327.07 455.229 1327.1 459.173Z" fill="#3F3D56"/>
<path d="M1314.36 705.956L1153.87 706.861C1152.7 706.866 1151.58 706.389 1150.74 705.534C1149.91 704.679 1149.44 703.516 1149.43 702.3L1148.17 459.381C1148.16 458.165 1148.62 456.996 1149.44 456.132C1150.27 455.268 1151.38 454.778 1152.55 454.77L1313.05 453.864C1314.22 453.859 1315.34 454.336 1316.17 455.191C1317 456.046 1317.47 457.209 1317.48 458.425L1318.75 701.345C1318.75 702.561 1318.29 703.729 1317.47 704.593C1316.65 705.458 1315.53 705.948 1314.36 705.956Z" fill="white"/>
<path d="M1232.17 450.651C1232.84 450.651 1233.38 450.084 1233.38 449.385C1233.38 448.686 1232.84 448.119 1232.17 448.119C1231.5 448.119 1230.95 448.686 1230.95 449.385C1230.95 450.084 1231.5 450.651 1232.17 450.651Z" fill="white"/>
<path d="M1279.9 522.238H1187.01C1186.37 522.237 1185.74 521.97 1185.29 521.493C1184.83 521.017 1184.57 520.371 1184.57 519.698V480.482C1184.57 479.809 1184.83 479.163 1185.29 478.687C1185.74 478.211 1186.37 477.943 1187.01 477.942H1279.9C1280.55 477.943 1281.17 478.211 1281.63 478.687C1282.09 479.163 1282.35 479.809 1282.35 480.482V519.698C1282.35 520.371 1282.09 521.017 1281.63 521.493C1281.17 521.97 1280.55 522.238 1279.9 522.238Z" fill="#178395"/>
<path d="M1271.06 541.05H1195.86C1195.08 541.05 1194.34 540.729 1193.79 540.157C1193.24 539.586 1192.93 538.81 1192.93 538.002C1192.93 537.193 1193.24 536.418 1193.79 535.846C1194.34 535.275 1195.08 534.953 1195.86 534.953H1271.06C1274.84 534.898 1274.88 541.106 1271.06 541.05Z" fill="#E4E4E4"/>
<path d="M1271.06 555.022H1195.86C1195.08 555.021 1194.34 554.699 1193.79 554.127C1193.24 553.556 1192.93 552.781 1192.93 551.974C1192.93 551.166 1193.24 550.391 1193.79 549.82C1194.34 549.248 1195.08 548.927 1195.86 548.925H1271.06C1274.84 548.87 1274.88 555.077 1271.06 555.022Z" fill="#E4E4E4"/>
<path d="M1271.06 568.994H1195.86C1195.08 568.994 1194.34 568.673 1193.79 568.101C1193.24 567.529 1192.93 566.754 1192.93 565.945C1192.93 565.137 1193.24 564.362 1193.79 563.79C1194.34 563.218 1195.08 562.897 1195.86 562.897H1271.06C1274.84 562.842 1274.88 569.049 1271.06 568.994Z" fill="#E4E4E4"/>
<path d="M1279.9 636.027H1187.01C1186.37 636.027 1185.74 635.759 1185.29 635.282C1184.83 634.806 1184.57 634.161 1184.57 633.487V594.272C1184.57 593.598 1184.83 592.952 1185.29 592.476C1185.74 592 1186.37 591.732 1187.01 591.731H1279.9C1280.55 591.732 1281.17 592 1281.63 592.476C1282.09 592.952 1282.35 593.598 1282.35 594.272V633.487C1282.35 634.161 1282.09 634.806 1281.63 635.283C1281.17 635.759 1280.55 636.027 1279.9 636.027Z" fill="#178395"/>
<path d="M1271.06 654.839H1195.86C1195.08 654.839 1194.34 654.518 1193.79 653.946C1193.24 653.375 1192.93 652.599 1192.93 651.791C1192.93 650.982 1193.24 650.207 1193.79 649.635C1194.34 649.064 1195.08 648.743 1195.86 648.743H1271.06C1274.84 648.688 1274.88 654.895 1271.06 654.839Z" fill="#E4E4E4"/>
<path d="M1271.06 668.811H1195.86C1195.08 668.81 1194.34 668.488 1193.79 667.917C1193.24 667.345 1192.93 666.57 1192.93 665.763C1192.93 664.955 1193.24 664.181 1193.79 663.609C1194.34 663.037 1195.08 662.716 1195.86 662.714H1271.06C1274.84 662.659 1274.88 668.867 1271.06 668.811Z" fill="#E4E4E4"/>
<path d="M1271.06 682.783H1195.86C1195.08 682.783 1194.34 682.462 1193.79 681.89C1193.24 681.318 1192.93 680.543 1192.93 679.735C1192.93 678.926 1193.24 678.151 1193.79 677.579C1194.34 677.007 1195.08 676.686 1195.86 676.686H1271.06C1274.84 676.631 1274.88 682.838 1271.06 682.783Z" fill="#E4E4E4"/>
<path d="M867.176 704.494L866.867 571.457L868.033 571.454L867.976 546.985L866.811 546.989L866.715 506.142C866.712 504.617 866.42 503.107 865.855 501.699C865.291 500.291 864.465 499.012 863.426 497.936C862.387 496.86 861.154 496.007 859.798 495.427C858.442 494.846 856.989 494.549 855.523 494.553L772.433 494.762C770.967 494.765 769.516 495.07 768.162 495.657C766.809 496.244 765.58 497.103 764.546 498.184C763.511 499.265 762.692 500.548 762.134 501.959C761.576 503.37 761.291 504.881 761.294 506.407L761.36 534.887L759.504 534.935L759.914 552.043L761.4 552.004L761.409 555.779L759.827 555.82L760.237 572.928L761.449 572.896L761.755 704.758C761.756 706.285 762.046 707.796 762.609 709.205C763.173 710.615 763.998 711.894 765.038 712.971C766.078 714.048 767.312 714.9 768.669 715.48C770.026 716.059 771.48 716.354 772.947 716.348L856.037 716.139C858.997 716.128 861.832 714.896 863.921 712.713C866.009 710.53 867.18 707.574 867.176 704.494Z" fill="#3F3D56"/>
<path d="M770.406 711.024C769.37 710.637 768.474 709.927 767.839 708.991C767.204 708.055 766.861 706.938 766.858 705.792L766.393 505.347C766.389 503.871 766.95 502.454 767.951 501.407C768.952 500.361 770.311 499.771 771.73 499.767L789.409 499.723L789.19 500.285C788.81 501.26 788.667 502.317 788.772 503.364C788.878 504.41 789.229 505.414 789.796 506.285C790.362 507.157 791.125 507.871 792.019 508.364C792.913 508.856 793.909 509.112 794.92 509.11L834.155 509.011C835.132 508.923 836.075 508.596 836.907 508.058C837.74 507.52 838.44 506.786 838.949 505.914C839.451 505.058 839.751 504.09 839.825 503.09C839.899 502.089 839.745 501.085 839.375 500.159L839.154 499.598L857.415 499.552C858.833 499.55 860.195 500.134 861.2 501.175C862.205 502.216 862.773 503.629 862.778 505.105L863.223 696.347C863.227 700.263 861.739 704.021 859.083 706.797C856.428 709.572 852.824 711.139 849.06 711.153L772.221 711.346C771.603 711.348 770.989 711.239 770.406 711.024Z" fill="white"/>
<path d="M800.675 504.474C801.347 504.474 801.892 503.907 801.892 503.208C801.892 502.51 801.347 501.943 800.675 501.943C800.004 501.943 799.459 502.51 799.459 503.208C799.459 503.907 800.004 504.474 800.675 504.474Z" fill="white"/>
<path d="M847.695 566.077H784.568C784.128 566.076 783.706 565.894 783.395 565.571C783.084 565.247 782.909 564.808 782.909 564.35V537.701C782.909 537.243 783.084 536.804 783.395 536.48C783.706 536.157 784.128 535.975 784.568 535.974H847.695C848.135 535.975 848.557 536.157 848.868 536.48C849.179 536.804 849.354 537.243 849.354 537.701V564.35C849.354 564.808 849.179 565.247 848.868 565.571C848.557 565.894 848.135 566.076 847.695 566.077Z" fill="#178395"/>
<path d="M841.684 578.861H790.579C790.317 578.862 790.058 578.808 789.816 578.705C789.574 578.601 789.354 578.448 789.168 578.256C788.983 578.063 788.836 577.835 788.736 577.583C788.636 577.332 788.584 577.062 788.584 576.789C788.584 576.517 788.636 576.247 788.736 575.996C788.836 575.744 788.983 575.515 789.168 575.323C789.354 575.131 789.574 574.978 789.816 574.874C790.058 574.77 790.317 574.717 790.579 574.718H841.684C844.252 574.68 844.278 578.899 841.684 578.861Z" fill="#E4E4E4"/>
<path d="M841.684 588.356H790.579C790.051 588.356 789.544 588.138 789.171 587.749C788.798 587.361 788.588 586.834 788.588 586.284C788.588 585.735 788.798 585.208 789.171 584.819C789.544 584.431 790.051 584.213 790.579 584.213H841.684C844.252 584.175 844.278 588.394 841.684 588.356Z" fill="#E4E4E4"/>
<path d="M841.684 597.851H790.579C790.317 597.851 790.058 597.798 789.816 597.694C789.574 597.59 789.354 597.438 789.168 597.246C788.983 597.053 788.836 596.825 788.736 596.573C788.636 596.321 788.584 596.052 788.584 595.779C788.584 595.507 788.636 595.237 788.736 594.986C788.836 594.734 788.983 594.505 789.168 594.313C789.354 594.121 789.574 593.968 789.816 593.864C790.058 593.76 790.317 593.707 790.579 593.708H841.684C844.252 593.67 844.278 597.889 841.684 597.851Z" fill="#E4E4E4"/>
<path d="M847.695 645.938H784.568C784.128 645.937 783.706 645.755 783.395 645.431C783.084 645.108 782.909 644.669 782.909 644.211V617.561C782.909 617.104 783.084 616.665 783.395 616.341C783.706 616.018 784.128 615.836 784.568 615.835H847.695C848.135 615.836 848.557 616.018 848.868 616.341C849.179 616.665 849.354 617.104 849.354 617.561V644.211C849.354 644.669 849.179 645.108 848.868 645.431C848.557 645.755 848.135 645.937 847.695 645.938Z" fill="#178395"/>
<path d="M841.684 658.722H790.579C790.317 658.722 790.058 658.669 789.816 658.565C789.574 658.461 789.354 658.309 789.168 658.116C788.983 657.924 788.836 657.695 788.736 657.444C788.636 657.192 788.584 656.923 788.584 656.65C788.584 656.378 788.636 656.108 788.736 655.856C788.836 655.605 788.983 655.376 789.168 655.184C789.354 654.991 789.574 654.839 789.816 654.735C790.058 654.631 790.317 654.578 790.579 654.579H841.684C844.252 654.541 844.278 658.759 841.684 658.722Z" fill="#E4E4E4"/>
<path d="M841.684 668.217H790.579C790.051 668.217 789.544 667.998 789.171 667.61C788.798 667.221 788.588 666.695 788.588 666.145C788.588 665.596 788.798 665.069 789.171 664.68C789.544 664.292 790.051 664.073 790.579 664.073H841.684C844.252 664.036 844.278 668.254 841.684 668.217Z" fill="#E4E4E4"/>
<path d="M841.684 677.712H790.579C790.317 677.712 790.058 677.659 789.816 677.555C789.574 677.451 789.354 677.299 789.168 677.106C788.983 676.914 788.836 676.685 788.736 676.434C788.636 676.182 788.584 675.912 788.584 675.64C788.584 675.368 788.636 675.098 788.736 674.846C788.836 674.595 788.983 674.366 789.168 674.174C789.354 673.981 789.574 673.829 789.816 673.725C790.058 673.621 790.317 673.568 790.579 673.568H841.684C844.252 673.531 844.278 677.749 841.684 677.712Z" fill="#E4E4E4"/>
<path d="M706.58 709.068L713.44 709.067L716.703 681.54H706.579L706.58 709.068Z" fill="#A0616A"/>
<path d="M704.831 706.737L706.761 706.737L714.299 703.548L718.339 706.737H718.339C720.623 706.737 722.812 707.681 724.427 709.36C726.041 711.04 726.948 713.318 726.948 715.693V715.984L704.831 715.985L704.831 706.737Z" fill="#2F2E41"/>
<path d="M733.162 704.57L739.852 706.142L748.863 680.039L738.988 677.719L733.162 704.57Z" fill="#A0616A"/>
<path d="M731.948 701.896L733.831 702.339L741.859 700.955L745.125 704.992L745.125 704.992C747.352 705.515 749.288 706.938 750.507 708.946C751.726 710.954 752.129 713.384 751.626 715.701L751.565 715.985L729.99 710.917L731.948 701.896Z" fill="#2F2E41"/>
<path d="M697.893 540.781C694.677 550.872 695.017 561.827 698.666 573.583L700.226 639.777C700.226 639.777 697.901 683.185 705.401 698.46H716.277L721.662 635.812L722.338 593.763L745.656 629.239L730.804 697.436L744.19 698.681L768.29 624.671L738.555 552.869L697.893 540.781Z" fill="#3C3C4C"/>
<path d="M740.495 554.989L700.947 548.407C699.909 548.062 698.956 547.487 698.153 546.722C697.349 545.956 696.715 545.02 696.292 543.975C695.869 542.931 695.669 541.804 695.704 540.671C695.74 539.539 696.011 538.427 696.498 537.414L698.292 533.681L697.595 494.468C697.511 489.367 698.719 484.333 701.099 479.873C703.479 475.412 706.945 471.682 711.15 469.058L715.007 466.659L716.956 461.51L734.928 461.966L734.981 468.72L741.417 479.398L741.417 479.442L741.013 537.562L739.239 543.56L741.921 550.537L740.495 554.989Z" fill="#6A6877"/>
<path d="M727.588 455.106C736.607 455.106 743.918 447.499 743.918 438.116C743.918 428.733 736.607 421.126 727.588 421.126C718.57 421.126 711.259 428.733 711.259 438.116C711.259 447.499 718.57 455.106 727.588 455.106Z" fill="#A0616A"/>
<path d="M710.584 441.82C710.097 439.685 710.321 436.681 710.596 434.532C710.948 431.697 711.869 428.972 713.299 426.531C714.729 424.091 716.635 421.99 718.895 420.365C719.762 419.681 720.791 419.255 721.873 419.134C722.414 419.087 722.955 419.219 723.42 419.511C723.884 419.803 724.247 420.241 724.458 420.761C724.73 420.054 725.139 419.412 725.659 418.876C726.179 418.339 726.799 417.919 727.481 417.642C728.851 417.096 730.325 416.889 731.785 417.039C734.615 417.281 737.329 418.317 739.639 420.035C741.949 421.753 743.769 424.089 744.905 426.797C745.341 427.875 746.56 423.893 747.112 424.911C747.62 425.97 748.506 426.78 749.581 427.168C750.663 427.482 751.103 432.124 751.529 431.042C751.86 431.842 751.991 432.715 751.909 433.582C751.828 434.449 751.537 435.28 751.064 435.998C750.59 436.716 749.95 437.298 749.203 437.689C748.455 438.081 747.624 438.269 746.788 438.236C745.695 438.089 744.611 437.873 743.543 437.59C741.582 437.333 739.598 437.832 737.966 438.992C736.334 440.153 735.167 441.895 734.685 443.89C734.387 442.73 733.911 441.628 733.275 440.626C732.953 440.127 732.52 439.716 732.014 439.427C731.508 439.138 730.942 438.978 730.365 438.962C729.813 439.028 729.28 439.21 728.798 439.498C728.317 439.787 727.897 440.174 727.564 440.637C726.845 441.515 726.305 442.54 725.581 443.413C723.456 445.977 720.582 451.954 717.554 451.518C715.164 451.174 711.249 444.735 710.584 441.82Z" fill="#2F2E41"/>
<path d="M788.463 542.587C787.768 542.901 787.015 543.053 786.257 543.032C785.5 543.011 784.756 542.817 784.079 542.464C783.401 542.112 782.806 541.609 782.335 540.991C781.865 540.373 781.53 539.655 781.355 538.888L763.029 536.962L769.075 529.241L785.55 532.254C786.808 532.033 788.1 532.3 789.182 533.004C790.263 533.709 791.059 534.801 791.418 536.075C791.777 537.349 791.674 538.715 791.13 539.915C790.585 541.116 789.636 542.066 788.463 542.587Z" fill="#A0616A"/>
<path d="M777.191 539.525L734.424 535.425L734.366 535.355L703.153 498.145C701.099 494.871 700.326 490.903 700.992 487.055C701.657 483.207 703.712 479.769 706.734 477.445C708.406 476.163 710.321 475.263 712.351 474.806C714.382 474.349 716.482 474.345 718.515 474.793C720.547 475.241 722.465 476.133 724.142 477.408C725.82 478.683 727.218 480.313 728.247 482.192L747.471 517.313L777.662 529.934L777.191 539.525Z" fill="#817F92"/>
<path d="M1439.07 717H686.933C686.686 716.999 686.449 716.897 686.275 716.715C686.101 716.533 686.003 716.287 686.003 716.03C686.003 715.773 686.101 715.526 686.275 715.345C686.449 715.163 686.686 715.06 686.933 715.059H1439.07C1439.31 715.059 1439.55 715.162 1439.73 715.344C1439.9 715.526 1440 715.772 1440 716.03C1440 716.287 1439.9 716.534 1439.73 716.716C1439.55 716.898 1439.31 717 1439.07 717Z" fill="#CCCCCC"/>
<path d="M1308.27 543.568C1308.97 543.638 1309.67 543.548 1310.33 543.304C1310.99 543.059 1311.59 542.668 1312.09 542.155C1312.59 541.643 1312.98 541.023 1313.22 540.339C1313.47 539.655 1313.56 538.924 1313.51 538.196L1329.11 531.048L1321.67 526.05L1307.99 533.604C1306.82 533.784 1305.76 534.403 1305 535.345C1304.24 536.287 1303.84 537.485 1303.88 538.713C1303.91 539.942 1304.38 541.114 1305.18 542.009C1305.99 542.904 1307.09 543.458 1308.27 543.568V543.568Z" fill="#FFB6B6"/>
<path d="M1317.44 536.572L1314.67 526.533L1342.72 511.89L1359.27 478.716C1360.09 477.076 1361.24 475.644 1362.65 474.521C1364.06 473.398 1365.69 472.611 1367.43 472.217C1369.16 471.823 1370.96 471.832 1372.69 472.242C1374.42 472.651 1376.04 473.453 1377.44 474.589C1379.97 476.644 1381.61 479.658 1382.01 482.969C1382.4 486.281 1381.51 489.62 1379.54 492.253L1354.66 525.45L1317.44 536.572Z" fill="#E4E4E4"/>
</g>
<defs>
<clipPath id="clip0">
<rect width="754" height="443" fill="white" transform="translate(686 274)"/>
</clipPath>
</defs>
</svg>
